<?xml version="1.0" encoding="UTF-8" standalone="no"?>
<!-- Created with Inkscape (http://www.inkscape.org/) -->
<svg xmlns="http://www.w3.org/2000/svg" xmlns:svg="http://www.w3.org/2000/svg" width="94.24559" height="94.24559" viewBox="0 0 94.24559 94.24559" version="1.2" xml:space="preserve" id="svg1" baseProfile="tiny-ps"><title id="title1">Simons</title><defs id="defs1"/><g id="layer1" transform="translate(-0.23209363,-0.23209363)"><g id="g534"><circle id="ellipse2226" cx="12.7" cy="12.7" r="11.866906" fill="none" fill-opacity="1" stroke="#ffffff" stroke-width="1.202" stroke-linejoin="miter" stroke-dasharray="none" stroke-opacity="1" style="fill:#000000;fill-opacity:1;stroke:#000000;stroke-opacity:1"/><path id="path2227" d="m 14.920382,17.659283 h 3.06387 c 0.777118,0 1.402787,-0.636944 1.402787,-1.428188 V 8.7932265 c 0,-0.7912447 -0.625669,-1.4281887 -1.402787,-1.4281887 H 7.4061848 c -0.7771193,0 -1.4026927,0.636944 -1.4026927,1.4281887 v 7.4378685 c 0,0.791244 0.6255734,1.428188 1.4026927,1.428188 h 3.1390102" fill="none" stroke="#ffffff" stroke-width="1.08851" stroke-linecap="round" stroke-linejoin="round" stroke-dasharray="none" stroke-opacity="1"/><path id="path2228" d="M 18.628798,8.2454321 15.662031,11.047348 12.695265,13.849263 9.7284992,11.047348 6.7617325,8.2454323" fill="none" stroke="#ffffff" stroke-width="1.038" stroke-linecap="round" stroke-linejoin="round" stroke-dasharray="none"/><path d="m 13.865019,15.330428 c 0,0 -0.619297,-0.378011 -1.32307,-0.1073 -0.703773,0.270711 -1.407521,1.65913 0.271009,2.286579 1.298259,0.485301 0.99165,1.622108 0.547831,2.082717 -0.443818,0.460609 -1.422413,0.519422 -1.899412,0.210785" id="path534" fill="none" fill-opacity="1" stroke="#ffffff" stroke-width="1.065" stroke-linecap="round" stroke-linejoin="miter" stroke-dasharray="none" stroke-opacity="1"/></g></g></svg>
